<?xml version="1.0" encoding="utf-8"?>
<!-- Svg Vector Icons : http://www.onlinewebfonts.com/icon -->
<!DOCTYPE svg PUBLIC "-//W3C//DTD SVG 1.1//EN" "http://www.w3.org/Graphics/SVG/1.1/DTD/svg11.dtd">
<svg version="1.1" xmlns="http://www.w3.org/2000/svg" xmlns:xlink="http://www.w3.org/1999/xlink" x="0px" y="0px" viewBox="0 0 256 256" enable-background="new 0 0 256 256" xml:space="preserve">
<metadata> Svg Vector Icons : http://www.onlinewebfonts.com/icon </metadata>
<g><g><g><path fill="#000000" d="M116.7,10.3C88.9,13.2,64,24.9,44.4,44.5c-18.8,18.8-29.9,41.6-33.9,69c-0.8,5.5-0.8,23.6,0,29.1c3.9,27.4,15.1,50.3,33.9,69c18.7,18.7,41.7,30,69,33.9c5.4,0.8,23.6,0.8,29.1,0c22.6-3.2,42.9-11.8,59.6-25.4c23.8-19.2,38.8-46.1,43.3-77.5c0.8-5.5,0.8-23.6,0-29.1c-3.9-27.3-15.1-50.3-33.9-69c-18.3-18.3-40.6-29.5-66.9-33.5C138.8,10.1,122.6,9.6,116.7,10.3z M124,62.4c9.3,1.9,19.5,6.1,26.5,11.1c13,9.1,20,23,18.2,36.1c-1.1,8.2-5,15.7-11.5,22.2c-8.6,8.6-20.8,14.6-34.9,17.1c-7.5,1.3-18.7,1.4-26.1,0.2l-5.4-0.9l-15,10.4c-8.3,5.7-15.6,10.8-16.4,11.3l-1.4,0.9l1-1.6c0.6-0.9,4-7.3,7.6-14.3c6-11.5,6.5-12.7,5.8-13.2c-13.1-7.8-20.6-16.2-23.9-27.1c-1.4-4.4-1.5-12.9-0.2-17.6C53,79.4,71.4,65.8,95.7,61.7C101.8,60.7,117.6,61.1,124,62.4z M183.6,98.7c5.6,2.9,9,5.2,13.2,9.1c15.1,14.4,16.1,34,2.4,49c-3,3.3-8.5,7.6-12.4,9.8c-1.3,0.7-2.3,1.4-2.3,1.5c0,0.1,2.5,5,5.6,10.9c3.1,5.9,6.2,11.9,7,13.3l1.4,2.7l-3.6-2.5c-2-1.4-8.9-6.2-15.4-10.7l-11.8-8.2l-3.6,0.8c-2.6,0.6-6.1,0.8-12.7,0.8c-7.6,0-9.8-0.1-14.2-1c-10.4-2.1-20.3-6.4-27.2-11.8l-3.6-2.9l5.5-0.3c7.8-0.5,12.4-1.2,19.4-2.9c25.2-6.4,43.6-22.6,47.7-42c0.7-3.2,0.6-13.6-0.1-16.5c-0.2-0.8-0.1-1.2,0.2-1.2C179,96.6,181.2,97.6,183.6,98.7z"/><path fill="#000000" d="M76.3,104v6.5h6.2h6.2V104v-6.5h-6.2h-6.2V104z"/><path fill="#000000" d="M102.1,104v6.5h6.5h6.5V104v-6.5h-6.5h-6.5L102.1,104L102.1,104z"/><path fill="#000000" d="M128,104v6.5h6.5h6.5V104v-6.5h-6.5H128V104z"/></g></g></g>
</svg>