<?xml version="1.0" encoding="utf-8"?>
<!-- Svg Vector Icons : http://www.onlinewebfonts.com/icon -->
<!DOCTYPE svg PUBLIC "-//W3C//DTD SVG 1.1//EN" "http://www.w3.org/Graphics/SVG/1.1/DTD/svg11.dtd">
<svg version="1.1" xmlns="http://www.w3.org/2000/svg" xmlns:xlink="http://www.w3.org/1999/xlink" x="0px" y="0px" viewBox="0 0 256 256" enable-background="new 0 0 256 256" xml:space="preserve">
<metadata> Svg Vector Icons : http://www.onlinewebfonts.com/icon </metadata>
<g><g><path fill="#000000" d="M202.9,199.4"/><path fill="#000000" d="M202.9,116.5"/><path fill="#000000" d="M65.5,221.8c-5.7,0-10.3-4-10.3-8.8v-156c0-4.9,4.6-8.8,10.3-8.8h29.1v-17h-38c-6.6,0-17.8,5.5-17.8,15.3v177c0,13,11.2,15.3,17.8,15.3h55.7c-4.5-4-8.8-12.6-15.8-16.9L65.5,221.8z"/><path fill="#000000" d="M203.4,46.4c0-9.1-11.2-15.3-17.8-15.3h-35.9v16.9h24.4c5.7,0,12.9,4,12.9,6.2v67.4c5.7-5.1,10.9-9.4,16.4-13.6L203.4,46.4L203.4,46.4z"/><path fill="#000000" d="M187,209.4v3.6c0,4.9-7.2,8.8-12.9,8.8h-1.3c-3,3.5-6,12.7-9.2,16.9h22.1c6.6,0,17.8,0,17.8-15.3v-25.3C200.1,200.8,193.1,204.8,187,209.4z"/><path fill="#000000" d="M119.9,179l18.8,33.8c0,0,35.7-73.7,75.2-88.8c-1.5,19.9-2.1,39.5,3.3,44.4c-11.6,4.9-50.3,34.4-75.9,77.6c-24.1-23.4-24.1-28.7-56-44.9C105.2,188.4,119.9,179,119.9,179z"/><path fill="#000000" d="M76.4,108.9h32.2v4.5H76.4V108.9z"/><path fill="#000000" d="M76.4,93.4h32.2v4.5H76.4V93.4z"/><path fill="#000000" d="M76.4,124.6h90.5v4.5H76.4V124.6L76.4,124.6z"/><path fill="#000000" d="M76.4,140.6h90.5v4.5H76.4V140.6L76.4,140.6z"/><path fill="#000000" d="M76.4,156.5h90.5v4.5H76.4V156.5L76.4,156.5z"/><path fill="#000000" d="M166.7,54.3h-23.1v-28c0-9-9.9-16.3-18.9-16.3h-4.6c-9,0-18.9,7.3-18.9,16.3v28H76.7c-2.8,0-5,2.2-5,5v17.2h100V59.3C171.7,56.6,169.5,54.3,166.7,54.3z M121.7,48.2c-5.6,0-10.1-4.5-10.1-10.1c0-5.6,4.5-10.1,10.1-10.1c5.6,0,10.1,4.5,10.1,10.1C131.8,43.7,127.3,48.2,121.7,48.2z"/></g></g>
</svg>