<?xml version="1.0" encoding="utf-8"?>
<!-- Svg Vector Icons : http://www.onlinewebfonts.com/icon -->
<!DOCTYPE svg PUBLIC "-//W3C//DTD SVG 1.1//EN" "http://www.w3.org/Graphics/SVG/1.1/DTD/svg11.dtd">
<svg version="1.1" xmlns="http://www.w3.org/2000/svg" xmlns:xlink="http://www.w3.org/1999/xlink" x="0px" y="0px" viewBox="0 0 256 256" enable-background="new 0 0 256 256" xml:space="preserve">
<metadata> Svg Vector Icons : http://www.onlinewebfonts.com/icon </metadata>
<g><g><g><path fill="#000000" d="M137.2,25.8c-11.7,1-22.6,6.5-31.1,15.6c-4.9,5.2-8.2,10.9-10.7,18.2c-1.9,5.5-2,6.4-2,14.4c-0.1,10,0.7,13.7,4.5,21.7c6.6,13.8,18.1,23.1,33.1,26.7c7,1.7,18.4,1.4,25-0.7c16.8-5.3,28.8-17.7,33.6-34.7c2.1-7.3,2-18.2-0.3-25.8C182.2,37.8,161.3,23.6,137.2,25.8z M152.3,36.5c10,2.6,20.3,11.1,24.9,20.6c4.4,9.2,5.3,19.2,2.7,28.2c-3.9,13.2-15.2,24.1-28.5,27.4c-5.9,1.5-16.7,0.9-22.3-1.1c-11.9-4.4-20.9-13.7-24.5-25.1c-1.8-5.7-2.2-14.6-0.9-20.5c2.2-9.7,8.2-18.6,16.3-24C129.7,35.6,140.9,33.7,152.3,36.5z"/><path fill="#000000" d="M140.3,44.5c0,1.3-0.3,1.5-1.7,1.5c-2.1,0-7.5,2.5-8.9,4.1c-0.6,0.7-1.7,2.6-2.4,4.2c-1.8,4.1-1.4,9.7,0.9,13.2c1.7,2.6,6.8,5.9,10.1,6.5l2,0.4v10.1v10.1l-1.7-0.4c-3.1-0.7-6.9-5.7-6.9-8.9c0-1.7-0.6-1.9-3.9-1.2c-2.9,0.6-3,0.6-2.6,2.5c0.2,1.1,1.1,3.4,2,5.2c1.8,3.8,5.2,6.3,10.1,7.5l3,0.7v3c0,3,0.1,3,1.8,3c1.8,0,1.8-0.1,1.8-3v-3l3.7-1c7-2,11.1-7.4,11.1-14.8c0-7.6-3.4-12-11.3-14.3l-3.5-1v-9.2c0-5,0.2-9.2,0.4-9.2c0.7,0,3.1,1.4,4.4,2.6c0.7,0.7,1.7,2.3,2,3.5l0.6,2.3l2.8-0.4c1.5-0.2,3-0.6,3.2-0.8c0.7-0.8-1.1-5.3-3.1-7.6c-2.2-2.5-6-4.4-8.5-4.5c-1.4,0-1.7-0.2-1.7-1.5s-0.3-1.5-1.8-1.5C140.6,42.9,140.3,43.2,140.3,44.5z M140.3,59.5c0,5.6-0.2,8.6-0.6,8.6c-1.2,0-3.9-1.7-5.5-3.3c-2.2-2.3-2.5-6.8-0.6-9.6c1.2-1.8,4.7-4.3,6.2-4.3C140.1,50.9,140.3,54.8,140.3,59.5z M148.8,77.5c1.1,0.7,2.4,2,2.9,3c2.2,4.1,0.4,10.4-3.6,12.8c-4.1,2.5-4.1,2.4-4.1-8.3v-9.5l1.4,0.4C146.2,76.1,147.7,76.8,148.8,77.5z"/><path fill="#000000" d="M89.6,143.9c-2.7,0.2-10.6,1.4-17.6,2.3c-12.5,1.8-13.3,1.8-37.4,1.8H10v36v36h19.7h19.8l2,2.3c1.8,2,2.3,2.3,4.7,2.3c2.2,0,3.6-0.6,7.5-3.3c2.6-1.7,5.5-3.4,6.3-3.6c2-0.5,2.8-0.4,26.7,3.7c34.3,5.8,58.6,9,68.8,9c4,0,6.2-0.4,10.9-2c7.6-2.5,32-14.7,44.7-22.3c16.7-10,21.9-14.7,24-21.5c1.4-4.4,1.2-7.1-0.8-10.9c-2.3-4.6-6.2-7-11.4-7c-3.3,0-4.7,0.5-11.1,3.5c-9.7,4.6-15.4,6.4-26.1,8.2c-4.9,0.9-9.3,1.7-9.8,1.8c-0.8,0.2-0.7,2.6,0.3,7.8c0.4,1.7,0.4,1.7,3.5,1.4c6.2-0.8,18.6-3.4,23.2-5c2.5-0.9,7.8-3.1,11.7-4.9c7.7-3.6,9-3.9,10.6-2.2c3.1,3.4-0.9,8.9-11.6,15.9c-13.2,8.5-37.1,21-48.6,25.4c-4.3,1.6-5.9,1.9-10.4,1.9c-10.6,0-44.1-4.6-78.6-10.8c-14.1-2.6-16.8-2.5-22.4,0.2c-2.2,1.1-3.7,1.6-3.7,1.2c0-0.6,3.6-54.2,3.7-54.2c1.1,0,5.2-0.5,14.8-1.8c23.9-3.2,28.7-3.2,42.9,0c14,3.1,50.8,14,52.3,15.3c0.6,0.5,0.7,1.4,0.4,2.4c-1.4,5.3-19.4,7.2-38.5,3.9c-5-0.9-9.7-1.8-10.5-2c-1.8-0.4-2,0.1-2.7,5.9l-0.4,3.4l7.3,1.4c12.7,2.3,15.7,2.7,24.5,2.7c14,0,22.6-2.4,26.9-7.6c6.5-7.5,3.4-17.9-6.1-20.6c-2-0.6-9.5-2.8-16.8-5c-15.8-4.7-34.4-9.5-42.4-10.9C108.9,143.1,97.7,143,89.6,143.9z M53.4,161.7c-0.2,2.2-0.9,12.7-1.6,23.5s-1.4,20.8-1.6,22.3l-0.3,2.6H34.8h-15V184v-26.1h17h17L53.4,161.7z"/></g></g></g>
</svg>